<?xml version="1.0" encoding="UTF-8" standalone="no"?>
<!DOCTYPE svg PUBLIC "-//W3C//DTD SVG 1.0//EN"
"http://www.w3.org/TR/2001/REC-SVG-20010904/DTD/svg10.dtd">
<!-- Created with Inkscape (http://www.inkscape.org/) -->
<svg
   id="svg941"
   sodipodi:version="0.32"
   inkscape:version="0.39"
   xmlns="http://www.w3.org/2000/svg"
   xmlns:sodipodi="http://sodipodi.sourceforge.net/DTD/sodipodi-0.dtd"
   xmlns:inkscape="http://www.inkscape.org/namespaces/inkscape"
   xmlns:xlink="http://www.w3.org/1999/xlink"
   xmlns:rdf="http://www.w3.org/1999/02/22-rdf-syntax-ns#"
   xmlns:cc="http://web.resource.org/cc/"
   xmlns:dc="http://purl.org/dc/elements/1.1/"
   width="6.0000000cm"
   height="6.0000000cm"
   sodipodi:docbase="/home/beuys/workspace/framlin/engineering/material/logo"
   sodipodi:docname="logo-rahmen.svg">
  <defs
     id="defs943" />
  <sodipodi:namedview
     id="base"
     pagecolor="#ffffff"
     bordercolor="#666666"
     borderopacity="1.0"
     inkscape:pageopacity="0.0"
     inkscape:pageshadow="2"
     inkscape:zoom="4.9119411"
     inkscape:cx="111.56224"
     inkscape:cy="87.686838"
     inkscape:window-width="1024"
     inkscape:window-height="723"
     inkscape:window-x="0"
     inkscape:window-y="0" />
  <metadata
     id="metadata944">
    <rdf:RDF
       id="RDF945">
      <cc:Work
         rdf:about=""
         id="Work946">
        <dc:format
           id="format947">image/svg+xml</dc:format>
        <dc:type
           id="type949"
           rdf:resource="http://purl.org/dc/dcmitype/StillImage" />
      </cc:Work>
    </rdf:RDF>
  </metadata>
  <path
     style="fill:none;fill-opacity:0.75000000;fill-rule:evenodd;stroke:#ff0000;stroke-width:3.7500000;stroke-linecap:butt;stroke-linejoin:miter;stroke-miterlimit:4.0000000;stroke-opacity:1.0000000;"
     d="M 173.98225,55.327080 C 113.21526,42.289800 115.86691,42.068830 113.21526,42.289800 C 110.56361,42.510770 80.069630,55.106110 80.069630,55.106110 L 80.069630,55.106110 L 80.069630,55.106110"
     id="path2796" />
  <path
     style="fill:none;fill-opacity:0.75000000;fill-rule:evenodd;stroke:#ff0000;stroke-width:3.7500000;stroke-linecap:round;stroke-linejoin:miter;stroke-miterlimit:4.0000000;stroke-opacity:1.0000000;"
     d="M 46.520310,71.235040 C 46.520310,71.235040 40.711740,70.794450 40.919190,75.861220 C 41.126640,80.928000 41.748980,141.94957 41.748980,141.94957 L 41.748980,141.94957"
     id="path3423" />
  <path
     style="fill:none;fill-opacity:0.75000000;fill-rule:evenodd;stroke:#ff0000;stroke-width:3.7500000;stroke-linecap:butt;stroke-linejoin:miter;stroke-miterlimit:4.0000000;stroke-opacity:1.0000000;"
     d="M 80.050930,55.106110 L 74.716680,57.757760 C 74.716680,57.757760 67.604340,65.712710 76.717020,67.038530 C 85.829710,68.364360 120.72462,76.098340 120.72462,76.098340 L 105.38864,83.390380 L 45.822800,71.236980 L 45.822800,71.236980"
     id="path3424" />
  <path
     style="fill:none;fill-opacity:0.75000000;fill-rule:evenodd;stroke:#ff0000;stroke-width:3.7500000;stroke-linecap:round;stroke-linejoin:miter;stroke-miterlimit:4.0000000;stroke-opacity:1.0000000;"
     d="M 41.620700,141.72669 C 41.620700,141.72669 44.714290,151.00747 51.122450,146.80902 C 57.530600,142.61058 74.103420,129.79426 74.103420,129.79426 L 99.957010,167.80125"
     id="path3425" />
  <path
     style="fill:none;fill-opacity:0.75000000;fill-rule:evenodd;stroke:#ff0000;stroke-width:3.7500000;stroke-linecap:butt;stroke-linejoin:miter;stroke-miterlimit:4.0000000;stroke-opacity:1.0000000;"
     d="M 99.777060,167.28447 C 99.777060,167.28447 100.48348,173.11385 112.02168,167.28447 C 123.55987,161.45510 123.55987,161.45510 123.55987,161.45510 L 123.55987,161.45510"
     id="path4668" />
  <path
     style="fill:none;fill-opacity:0.75000000;fill-rule:evenodd;stroke:#ff0000;stroke-width:3.7500000;stroke-linecap:butt;stroke-linejoin:miter;stroke-miterlimit:4.0000000;stroke-opacity:1.0000000;"
     d="M 122.93798,161.61407 C 173.54031,134.65562 173.54031,134.65562 173.54031,134.65562 L 173.54031,134.65562 L 173.54031,134.65562"
     id="path4669" />
  <path
     style="fill:none;fill-opacity:0.75000000;fill-rule:evenodd;stroke:#ff0000;stroke-width:3.7500000;stroke-linecap:butt;stroke-linejoin:miter;stroke-miterlimit:4.0000000;stroke-opacity:1.0000000;"
     d="M 172.87740,134.87660 L 177.29682,132.00397 C 177.29682,132.00397 178.62264,128.02649 176.63390,125.59581 C 174.64517,123.16513 171.33060,122.72319 169.12089,123.60708 C 166.91119,124.49096 111.66847,154.32203 111.66847,154.32203 L 111.44750,131.34106 L 137.30109,116.09407"
     id="path4671" />
  <path
     style="fill:none;fill-opacity:0.75000000;fill-rule:evenodd;stroke:#ff0000;stroke-width:3.7500000;stroke-linecap:round;stroke-linejoin:round;stroke-miterlimit:4.0000000;stroke-opacity:1.0000000;"
     d="M 136.85915,116.53601 L 141.27856,113.66339 C 141.27856,113.66339 143.48827,111.23271 142.38342,109.24397 C 141.27856,107.25523 140.17371,105.92941 140.17371,105.92941 C 140.17371,105.92941 137.74303,104.16164 135.53332,105.26649 C 133.32361,106.37135 133.32361,106.37135 133.32361,106.37135 L 111.44750,118.74572 L 111.44750,118.74572 L 111.44750,118.74572"
     id="path6536" />
  <path
     style="fill:none;fill-opacity:0.75000000;fill-rule:evenodd;stroke:#ff0000;stroke-width:3.7500000;stroke-linecap:butt;stroke-linejoin:miter;stroke-miterlimit:4.0000000;stroke-opacity:1.0000000;"
     d="M 111.44750,118.52475 L 110.78458,98.637370 C 110.78458,98.637370 109.01682,92.229210 104.81837,93.334070 C 100.61992,94.438920 98.631190,96.206690 98.631190,99.079310 C 98.631190,101.95193 98.852160,143.71543 98.852160,143.71543 L 80.732540,117.86183"
     id="path7158" />
  <path
     style="fill:none;fill-opacity:0.75000000;fill-rule:evenodd;stroke:#000000;stroke-width:1.0000000pt;stroke-linecap:butt;stroke-linejoin:miter;stroke-opacity:1.0000000;"
     d="M 109.45876,95.985720 L 109.45876,95.985720"
     id="path7159" />
  <path
     style="fill:none;fill-opacity:0.75000000;fill-rule:evenodd;stroke:#ff0000;stroke-width:3.7500000;stroke-linecap:round;stroke-linejoin:miter;stroke-miterlimit:4.0000000;stroke-opacity:1.0000000;"
     d="M 53.553130,82.285520 L 102.82963,93.113100 L 107.91196,92.892130 L 138.40594,79.854840"
     id="path7160" />
  <path
     style="fill:none;fill-opacity:0.75000000;fill-rule:evenodd;stroke:#ff0000;stroke-width:3.7500000;stroke-linecap:round;stroke-linejoin:round;stroke-miterlimit:4.0000000;stroke-opacity:1.0000000;"
     d="M 53.774100,82.727470 L 53.995070,128.91038 L 70.125940,117.19892 C 70.125940,117.19892 76.313130,112.11659 80.069630,117.19892 C 83.826140,122.28125 83.826140,122.28125 83.826140,122.28125"
     id="path7161" />
  <path
     style="fill:none;fill-opacity:0.75000000;fill-rule:evenodd;stroke:#ff0000;stroke-width:3.7500000;stroke-linecap:butt;stroke-linejoin:miter;stroke-miterlimit:4.0000000;stroke-opacity:1.0000000;"
     d="M 163.78431,63.061080 L 112.51572,52.454510 L 95.349910,59.746530 L 137.00562,68.364360 C 137.00562,68.364360 152.11155,73.225700 139.29440,79.191900 C 126.47726,85.158090 126.47726,85.158090 126.47726,85.158090 L 126.47726,85.158090"
     id="path7162" />
  <path
     style="fill:none;fill-opacity:0.75000000;fill-rule:evenodd;stroke:#ff0000;stroke-width:3.7500000;stroke-linecap:butt;stroke-linejoin:miter;stroke-miterlimit:4.0000000;stroke-opacity:1.0000000;"
     d="M 162.54207,62.840090 L 171.38951,64.828830 C 171.38951,64.828830 176.04606,64.607850 176.74454,63.944940 C 177.44303,63.282030 178.37434,60.188440 177.67586,58.641640 C 176.97738,57.094840 175.11476,55.327080 172.78648,54.885140 C 170.45820,54.443190 170.45820,54.443190 170.45820,54.443190"
     id="path7788" />
</svg>
