<?xml version="1.0" encoding="UTF-8" standalone="no"?>
<!DOCTYPE svg PUBLIC "-//W3C//DTD SVG 1.0//EN"
"http://www.w3.org/TR/2001/REC-SVG-20010904/DTD/svg10.dtd">
<!-- Created with Inkscape (http://www.inkscape.org/) -->
<svg
   id="svg968"
   sodipodi:version="0.32"
   inkscape:version="0.39"
   xmlns="http://www.w3.org/2000/svg"
   xmlns:sodipodi="http://sodipodi.sourceforge.net/DTD/sodipodi-0.dtd"
   xmlns:inkscape="http://www.inkscape.org/namespaces/inkscape"
   xmlns:xlink="http://www.w3.org/1999/xlink"
   xmlns:rdf="http://www.w3.org/1999/02/22-rdf-syntax-ns#"
   xmlns:cc="http://web.resource.org/cc/"
   xmlns:dc="http://purl.org/dc/elements/1.1/"
   width="3.1000000cm"
   height="3.0000000cm"
   sodipodi:docbase="/home/beuys/workspace/framlin/engineering/material/logo"
   sodipodi:docname="logo-invers.svg">
  <defs
     id="defs970" />
  <sodipodi:namedview
     id="base"
     pagecolor="#ffffff"
     bordercolor="#666666"
     borderopacity="1.0"
     inkscape:pageopacity="0.0"
     inkscape:pageshadow="2"
     inkscape:zoom="11.313708"
     inkscape:cx="35.153196"
     inkscape:cy="64.277982"
     inkscape:window-width="1024"
     inkscape:window-height="723"
     inkscape:window-x="0"
     inkscape:window-y="0" />
  <metadata
     id="metadata971">
    <rdf:RDF
       id="RDF972">
      <cc:Work
         rdf:about=""
         id="Work973">
        <dc:format
           id="format974">image/svg+xml</dc:format>
        <dc:type
           id="type976"
           rdf:resource="http://purl.org/dc/dcmitype/StillImage" />
      </cc:Work>
    </rdf:RDF>
  </metadata>
  <path
     style="fill:none;fill-opacity:0.75000000;fill-rule:evenodd;stroke:#ffffcc;stroke-width:9.3181276;stroke-linecap:round;stroke-linejoin:round;stroke-miterlimit:4.0000000;stroke-opacity:1.0000000;"
     d="M 8.1238850,32.697127 L 8.6334800,81.378172 L 29.198270,65.682014 L 51.806593,98.405520 L 51.296998,49.724504 L 51.296998,49.724504"
     id="path3416" />
  <path
     style="fill:none;fill-opacity:0.75000000;fill-rule:evenodd;stroke:#ffffcc;stroke-width:8.0399380;stroke-linecap:round;stroke-linejoin:round;stroke-miterlimit:4.0000000;stroke-opacity:1.0000000;"
     d="M 52.439203,70.999177 L 75.375200,57.733342 L 75.375200,57.733342"
     id="path919" />
  <path
     style="fill:none;fill-opacity:0.75000000;fill-rule:evenodd;stroke:#ff0000;stroke-width:2.8125000;stroke-linecap:round;stroke-linejoin:round;stroke-miterlimit:4.0000000;stroke-opacity:1.0000000;"
     d="M 75.378118,62.423849 L 78.692675,60.269384 C 78.692675,60.269384 80.349958,58.446374 79.521320,56.954827 C 78.692675,55.463272 77.864038,54.468899 77.864038,54.468899 C 77.864038,54.468899 76.041028,53.143079 74.383745,53.971717 C 72.726463,54.800354 72.726463,54.800354 72.726463,54.800354 L 56.319380,64.081132 L 56.319380,64.081132 L 56.319380,64.081132"
     id="path6536" />
  <path
     style="fill:none;fill-opacity:0.75000000;fill-rule:evenodd;stroke:#ffffcc;stroke-width:9.1734800;stroke-linecap:round;stroke-linejoin:round;stroke-miterlimit:4.0000000;stroke-opacity:1.0000000;"
     d="M 52.344215,97.983470 L 101.19608,71.897152 L 101.19608,71.897152"
     id="path914" />
  <path
     style="fill:none;fill-opacity:0.75000000;fill-rule:evenodd;stroke:#ff0000;stroke-width:2.8125000;stroke-linecap:butt;stroke-linejoin:miter;stroke-miterlimit:4.0000000;stroke-opacity:1.0000000;"
     d="M 64.937240,96.232390 C 102.88899,76.013557 102.88899,76.013557 102.88899,76.013557 L 102.88899,76.013557 L 102.88899,76.013557"
     id="path4669" />
  <path
     style="fill:none;fill-opacity:0.75000000;fill-rule:evenodd;stroke:#ffffcc;stroke-width:7.8379054;stroke-linecap:round;stroke-linejoin:round;stroke-miterlimit:4.0000000;stroke-opacity:1.0000000;"
     d="M 98.195287,19.172119 L 50.440352,9.3508834 L 27.066541,20.508222 L 75.339879,30.260916 L 54.167179,41.127263 L 6.4122470,31.306036 L 6.4122470,31.306036"
     id="path2793" />
  <path
     style="fill:none;fill-opacity:0.75000000;fill-rule:evenodd;stroke:#ff0000;stroke-width:2.8125000;stroke-linecap:butt;stroke-linejoin:miter;stroke-miterlimit:4.0000000;stroke-opacity:1.0000000;"
     d="M 102.39181,76.179292 L 105.70637,74.024819 C 105.70637,74.024819 106.70074,71.041717 105.20918,69.218707 C 103.71763,67.395697 101.23171,67.064242 99.574420,67.727152 C 97.917150,68.390069 56.485108,90.763360 56.485108,90.763360 L 56.319380,73.527637 L 75.709573,62.092394"
     id="path4671" />
  <path
     style="fill:none;fill-opacity:0.75000000;fill-rule:evenodd;stroke:#ff0000;stroke-width:2.8125000;stroke-linecap:round;stroke-linejoin:miter;stroke-miterlimit:4.0000000;stroke-opacity:1.0000000;"
     d="M 7.6239880,28.448122 C 7.6239880,28.448122 3.2675600,28.117679 3.4231480,31.917764 C 3.5787350,35.717842 4.0454980,81.484019 4.0454980,81.484019 L 4.0454980,81.484019"
     id="path3423" />
  <path
     style="fill:none;fill-opacity:0.75000000;fill-rule:evenodd;stroke:#ff0000;stroke-width:2.8125000;stroke-linecap:round;stroke-linejoin:miter;stroke-miterlimit:4.0000000;stroke-opacity:1.0000000;"
     d="M 3.9492800,81.316859 C 3.9492800,81.316859 6.2694800,88.277440 11.075593,85.128610 C 15.881713,81.979777 28.311320,72.367544 28.311320,72.367544 L 47.701513,100.87278"
     id="path3425" />
  <path
     style="fill:none;fill-opacity:0.75000000;fill-rule:evenodd;stroke:#ff0000;stroke-width:2.8125000;stroke-linecap:butt;stroke-linejoin:miter;stroke-miterlimit:4.0000000;stroke-opacity:1.0000000;"
     d="M 47.566550,100.48519 C 47.566550,100.48519 48.096365,104.85723 56.750015,100.48519 C 65.403665,96.113170 65.403665,96.113170 65.403665,96.113170 L 65.403665,96.113170"
     id="path4668" />
  <path
     style="fill:none;fill-opacity:0.75000000;fill-rule:evenodd;stroke:#ff0000;stroke-width:2.8125000;stroke-linecap:butt;stroke-linejoin:miter;stroke-miterlimit:4.0000000;stroke-opacity:1.0000000;"
     d="M 56.319380,63.915404 L 55.822198,48.999869 C 55.822198,48.999869 54.496370,44.193757 51.347533,45.022394 C 48.198703,45.851039 46.707148,47.176859 46.707148,49.331332 C 46.707148,51.485797 46.872875,82.808410 46.872875,82.808410 L 33.283168,63.418222"
     id="path7158" />
  <path
     style="fill:none;fill-opacity:0.75000000;fill-rule:evenodd;stroke:#000000;stroke-width:0.75000000pt;stroke-linecap:butt;stroke-linejoin:miter;stroke-opacity:1.0000000;"
     d="M 54.827825,47.011132 L 54.827825,47.011132"
     id="path7159" />
  <path
     style="fill:none;fill-opacity:0.75000000;fill-rule:evenodd;stroke:#ff0000;stroke-width:2.7716613;stroke-linecap:round;stroke-linejoin:round;stroke-miterlimit:4.0000000;stroke-opacity:1.0000000;"
     d="M 13.064330,38.106577 L 13.230058,71.745169 L 25.328218,63.214812 C 25.328218,63.214812 29.968603,59.512958 32.785985,63.214812 C 35.603360,66.916667 35.603360,66.916667 35.603360,66.916667"
     id="path7161" />
  <path
     style="fill:none;fill-opacity:0.75000000;fill-rule:evenodd;stroke:#ff0000;stroke-width:2.8125000;stroke-linecap:round;stroke-linejoin:round;stroke-opacity:1.0000000;stroke-miterlimit:4.0000000;stroke-dasharray:none;"
     d="M 94.831469,22.264492 L 50.564787,13.627091 L 39.947981,18.665575 L 74.857478,26.583193 L 74.857478,26.583193"
     id="path1621" />
  <path
     style="fill:none;fill-opacity:0.75000000;fill-rule:evenodd;stroke:#ff0000;stroke-width:2.8125000;stroke-linecap:round;stroke-linejoin:round;stroke-opacity:1.0000000;stroke-miterlimit:4.0000000;stroke-dasharray:none;"
     d="M 75.577262,26.763139 C 75.577262,26.763139 82.055313,30.362056 76.836883,33.421136 C 71.618453,36.480215 64.240673,40.079133 64.240673,40.079133 L 64.420618,39.899187"
     id="path1622" />
  <path
     style="fill:none;fill-opacity:0.75000000;fill-rule:evenodd;stroke:#ff0000;stroke-width:2.7289808;stroke-linecap:round;stroke-linejoin:round;stroke-miterlimit:4.0000000;stroke-opacity:1.0000000;"
     d="M 63.700835,40.389292 L 58.302459,43.269386 C 58.302459,43.269386 53.084029,44.624724 47.325762,43.777638 C 41.567494,42.930551 13.136048,38.017449 13.136048,38.017449 L 13.136048,38.017449"
     id="path1623" />
  <path
     style="fill:none;fill-opacity:0.75000000;fill-rule:evenodd;stroke:#ff0000;stroke-width:2.8044212;stroke-linecap:round;stroke-linejoin:round;stroke-miterlimit:4.0000000;stroke-opacity:1.0000000;"
     d="M 36.880834,10.388065 L 47.973475,5.7094730 L 96.459049,14.886712"
     id="path1625" />
  <path
     style="fill:none;fill-opacity:0.75000000;fill-rule:evenodd;stroke:#ff0000;stroke-width:2.7661808;stroke-linecap:round;stroke-linejoin:round;stroke-miterlimit:4.0000000;stroke-opacity:1.0000000;"
     d="M 97.627925,15.086874 L 100.28417,15.722173 C 100.28417,15.722173 102.05500,17.501798 102.23208,18.369597 C 102.40917,19.237398 101.16958,21.829993 100.46125,22.250186 C 99.752921,22.670379 98.867507,23.107179 96.388344,22.632155 C 93.909182,22.157132 93.909182,22.157132 93.909182,22.157132"
     id="path1626" />
  <path
     style="fill:none;fill-opacity:0.75000000;fill-rule:evenodd;stroke:#ff0000;stroke-width:2.8125000;stroke-linecap:round;stroke-linejoin:round;stroke-opacity:1.0000000;stroke-miterlimit:4.0000000;stroke-dasharray:none;"
     d="M 8.5073785,28.517464 L 53.364465,36.472415 L 63.087183,31.721541 L 31.377863,25.313386 L 31.377863,25.313386"
     id="path1627" />
  <path
     style="fill:none;fill-opacity:0.75000000;fill-rule:evenodd;stroke:#ff0000;stroke-width:2.8211923;stroke-linecap:round;stroke-linejoin:round;stroke-miterlimit:4.0000000;stroke-opacity:1.0000000;"
     d="M 36.978935,10.402344 L 24.983506,16.696275 C 24.983506,16.696275 22.421376,19.898452 23.469520,21.444331 C 24.517664,22.990208 25.332888,24.094407 26.381032,24.315246 C 27.429176,24.536086 32.786358,25.529865 32.786358,25.529865 L 32.786358,25.529865 L 32.786358,25.529865"
     id="path1629" />
</svg>
