<?xml version="1.0" encoding="UTF-8" standalone="no"?>
<!DOCTYPE svg PUBLIC "-//W3C//DTD SVG 20010904//EN"
"http://www.w3.org/TR/2001/REC-SVG-20010904/DTD/svg10.dtd">
<!-- Created with Inkscape (http://www.inkscape.org/) -->
<svg
   id="svg1"
   sodipodi:version="0.32"
   inkscape:version="0.39"
   width="16.000000cm"
   height="4.0000000cm"
   sodipodi:docbase="/home/beuys/Documents/Pictures/work"
   sodipodi:docname="swe-logo-voll-gross.svg"
   xmlns="http://www.w3.org/2000/svg"
   xmlns:cc="http://web.resource.org/cc/"
   xmlns:inkscape="http://www.inkscape.org/namespaces/inkscape"
   xmlns:sodipodi="http://sodipodi.sourceforge.net/DTD/sodipodi-0.dtd"
   xmlns:rdf="http://www.w3.org/1999/02/22-rdf-syntax-ns#"
   xmlns:xml="http://www.w3.org/XML/1998/namespace"
   xmlns:dc="http://purl.org/dc/elements/1.1/"
   xmlns:xlink="http://www.w3.org/1999/xlink">
  <defs
     id="defs3" />
  <sodipodi:namedview
     id="base"
     pagecolor="#ffffff"
     bordercolor="#666666"
     borderopacity="1.0"
     inkscape:pageopacity="0.0"
     inkscape:pageshadow="2"
     inkscape:zoom="1.0000000"
     inkscape:cx="75.045532"
     inkscape:cy="58.140686"
     inkscape:window-width="1024"
     inkscape:window-height="723"
     showgrid="true"
     inkscape:grid-bbox="false"
     gridtolerance="0.50000000mm"
     inkscape:window-x="0"
     inkscape:window-y="0"
     gridspacingx="0.50000000mm"
     gridspacingy="0.50000000mm" />
  <metadata
     id="metadata4">
    <rdf:RDF
       id="RDF5">
      <cc:Work
         rdf:about=""
         id="Work6">
        <dc:format
           id="format7">image/svg+xml</dc:format>
        <dc:type
           id="type9"
           rdf:resource="http://purl.org/dc/dcmitype/StillImage" />
      </cc:Work>
    </rdf:RDF>
  </metadata>
  <path
     style="fill:none;fill-opacity:0.75000000;fill-rule:evenodd;stroke:#000000;stroke-width:6.1156535;stroke-linecap:round;stroke-linejoin:round;stroke-miterlimit:4.0000000;stroke-opacity:1.0000000;"
     d="M 35.135911,65.183429 L 67.703819,47.792549 L 67.703819,47.792549"
     id="path914"
     transform="scale(2.000000,2.000000)" />
  <path
     style="fill:none;fill-opacity:0.75000000;fill-rule:evenodd;stroke:#000000;stroke-width:5.3599586;stroke-linecap:round;stroke-linejoin:round;stroke-miterlimit:4.0000000;stroke-opacity:1.0000000;"
     d="M 35.199236,47.193902 L 50.489898,38.350012 L 50.489898,38.350012"
     id="path919"
     transform="scale(2.000000,2.000000)" />
  <path
     style="fill:none;fill-opacity:0.75000000;fill-rule:evenodd;stroke:#000000;stroke-width:10.259608;stroke-linecap:round;stroke-linejoin:round;stroke-miterlimit:4.0000000;stroke-opacity:0.88167942;"
     d="M 136.94461,26.537650 L 76.840364,13.916792 L 41.620762,28.254620 L 102.44112,40.787402 L 70.262066,54.751290 L 10.157816,42.130438 L 10.157816,42.130438"
     id="path2793" />
  <path
     style="fill:none;fill-opacity:0.75000000;fill-rule:evenodd;stroke:#000000;stroke-width:6.2120848;stroke-linecap:round;stroke-linejoin:round;stroke-miterlimit:4.0000000;stroke-opacity:1.0000000;"
     d="M 5.6556906,21.659202 L 5.9954210,54.113228 L 19.705280,43.649126 L 34.777493,65.464796 L 34.437762,33.010784 L 34.437762,33.010784"
     id="path3416"
     transform="scale(2.000000,2.000000)" />
  <text
     xml:space="preserve"
     style="font-size:24.000000;font-style:normal;font-variant:normal;font-weight:normal;font-stretch:normal;fill:#000000;fill-opacity:1.0000000;stroke:none;stroke-width:1.0000000pt;stroke-linecap:butt;stroke-linejoin:miter;stroke-opacity:1.0000000;font-family:Times New Roman;text-anchor:start;writing-mode:lr;"
     x="77.138351"
     y="38.136433"
     id="text8496"
     sodipodi:linespacing="100%"
     transform="scale(2.000000,2.000000)"><tspan
       id="tspan8497">Wolfgang Egger</tspan></text>
  <text
     xml:space="preserve"
     style="font-size:12.000000;font-style:normal;font-variant:normal;font-weight:normal;font-stretch:normal;fill:#000000;fill-opacity:1.0000000;stroke:none;stroke-width:1.0000000pt;stroke-linecap:butt;stroke-linejoin:miter;stroke-opacity:1.0000000;font-family:Bitstream Vera Sans;text-anchor:start;writing-mode:lr;"
     x="147.65611"
     y="65.675461"
     id="text8499"
     sodipodi:linespacing="100%"
     transform="scale(2.000000,2.000000)"><tspan
       x="147.65611"
       y="65.675461"
       sodipodi:role="line"
       id="tspan8502">SoftWareEngineering</tspan></text>
  <path
     style="fill:none;fill-opacity:0.75000000;fill-rule:evenodd;stroke:#ff0000;stroke-width:3.7500000;stroke-linecap:butt;stroke-linejoin:miter;stroke-opacity:1.0000000;stroke-miterlimit:4.0000000;stroke-dasharray:none;"
     d="M 138.10679,21.745103 C 77.339804,8.7078212 79.991455,8.4868504 77.339804,8.7078212 C 74.688154,8.9287921 44.194174,21.524132 44.194174,21.524132 L 44.194174,21.524132 L 44.194174,21.524132"
     id="path2796" />
  <path
     style="fill:none;fill-opacity:0.75000000;fill-rule:evenodd;stroke:#ff0000;stroke-width:3.7500000;stroke-linecap:round;stroke-linejoin:miter;stroke-opacity:1.0000000;stroke-miterlimit:4.0000000;stroke-dasharray:none;"
     d="M 10.644847,37.653062 C 10.644847,37.653062 4.8362812,37.212473 5.0437301,42.279246 C 5.2511789,47.346020 5.8735253,108.36759 5.8735253,108.36759 L 5.8735253,108.36759"
     id="path3423" />
  <path
     style="fill:none;fill-opacity:0.75000000;fill-rule:evenodd;stroke:#ff0000;stroke-width:3.7500000;stroke-linecap:butt;stroke-linejoin:miter;stroke-opacity:1.0000000;stroke-miterlimit:4.0000000;stroke-dasharray:none;"
     d="M 44.175473,21.524132 L 38.841218,24.175782 C 38.841218,24.175782 31.728878,32.130733 40.841564,33.456559 C 49.954248,34.782384 84.849166,42.516364 84.849166,42.516364 L 69.513183,49.808403 L 9.9473372,37.655005 L 9.9473372,37.655005"
     id="path3424" />
  <path
     style="fill:none;fill-opacity:0.75000000;fill-rule:evenodd;stroke:#ff0000;stroke-width:3.7500000;stroke-linecap:round;stroke-linejoin:miter;stroke-opacity:1.0000000;stroke-miterlimit:4.0000000;stroke-dasharray:none;"
     d="M 5.7452426,108.14471 C 5.7452426,108.14471 8.8388348,117.42549 15.246990,113.22704 C 21.655145,109.02860 38.227960,96.212285 38.227960,96.212285 L 64.081552,134.21927"
     id="path3425" />
  <path
     style="fill:none;fill-opacity:0.75000000;fill-rule:evenodd;stroke:#ff0000;stroke-width:3.7500000;stroke-linecap:butt;stroke-linejoin:miter;stroke-opacity:1.0000000;stroke-miterlimit:4.0000000;stroke-dasharray:none;"
     d="M 63.901600,133.70249 C 63.901600,133.70249 64.608021,139.53187 76.146218,133.70249 C 87.684416,127.87312 87.684416,127.87312 87.684416,127.87312 L 87.684416,127.87312"
     id="path4668" />
  <path
     style="fill:none;fill-opacity:0.75000000;fill-rule:evenodd;stroke:#ff0000;stroke-width:3.7500000;stroke-linecap:butt;stroke-linejoin:miter;stroke-opacity:1.0000000;stroke-miterlimit:4.0000000;stroke-dasharray:none;"
     d="M 87.062523,128.03209 C 137.66485,101.07364 137.66485,101.07364 137.66485,101.07364 L 137.66485,101.07364 L 137.66485,101.07364"
     id="path4669" />
  <path
     style="fill:none;fill-opacity:0.75000000;fill-rule:evenodd;stroke:#ff0000;stroke-width:3.7500000;stroke-linecap:butt;stroke-linejoin:miter;stroke-opacity:1.0000000;stroke-miterlimit:4.0000000;stroke-dasharray:none;"
     d="M 137.00194,101.29462 L 141.42136,98.421994 C 141.42136,98.421994 142.74718,94.444519 140.75844,92.013839 C 138.76971,89.583159 135.45514,89.141218 133.24543,90.025101 C 131.03573,90.908985 75.793008,120.74005 75.793008,120.74005 L 75.572037,97.759082 L 101.42563,82.512092"
     id="path4671" />
  <path
     style="fill:none;fill-opacity:0.75000000;fill-rule:evenodd;stroke:#ff0000;stroke-width:3.7500000;stroke-linecap:round;stroke-linejoin:round;stroke-opacity:1.0000000;stroke-miterlimit:4.0000000;stroke-dasharray:none;"
     d="M 100.98369,82.954033 L 105.40310,80.081412 C 105.40310,80.081412 107.61281,77.650732 106.50796,75.661995 C 105.40310,73.673257 104.29825,72.347432 104.29825,72.347432 C 104.29825,72.347432 101.86757,70.579665 99.657862,71.684519 C 97.448153,72.789373 97.448153,72.789373 97.448153,72.789373 L 75.572037,85.163742 L 75.572037,85.163742 L 75.572037,85.163742"
     id="path6536" />
  <path
     style="fill:none;fill-opacity:0.75000000;fill-rule:evenodd;stroke:#ff0000;stroke-width:3.7500000;stroke-linecap:butt;stroke-linejoin:miter;stroke-opacity:1.0000000;stroke-miterlimit:4.0000000;stroke-dasharray:none;"
     d="M 75.572037,84.942771 L 74.909125,65.055393 C 74.909125,65.055393 73.141358,58.647238 68.942911,59.752092 C 64.744465,60.856946 62.755727,62.624713 62.755727,65.497335 C 62.755727,68.369956 62.976698,110.13345 62.976698,110.13345 L 44.857086,84.279859"
     id="path7158" />
  <path
     style="fill:none;fill-opacity:0.75000000;fill-rule:evenodd;stroke:#000000;stroke-width:1.0000000pt;stroke-linecap:butt;stroke-linejoin:miter;stroke-opacity:1.0000000;"
     d="M 73.583299,62.403742 L 73.583299,62.403742"
     id="path7159" />
  <path
     style="fill:none;fill-opacity:0.75000000;fill-rule:evenodd;stroke:#ff0000;stroke-width:3.7500000;stroke-linecap:round;stroke-linejoin:miter;stroke-miterlimit:4.0000000;stroke-opacity:1.0000000;stroke-dasharray:none;"
     d="M 17.677670,48.703549 L 66.954173,59.531121 L 72.036503,59.310150 L 102.53048,46.272869"
     id="path7160" />
  <path
     style="fill:none;fill-opacity:0.75000000;fill-rule:evenodd;stroke:#ff0000;stroke-width:3.7500000;stroke-linecap:round;stroke-linejoin:round;stroke-opacity:1.0000000;stroke-miterlimit:4.0000000;stroke-dasharray:none;"
     d="M 17.898640,49.145490 L 18.119611,95.328402 L 34.250485,83.616946 C 34.250485,83.616946 40.437669,78.534616 44.194174,83.616946 C 47.950679,88.699276 47.950679,88.699276 47.950679,88.699276"
     id="path7161" />
  <path
     style="fill:none;fill-opacity:0.75000000;fill-rule:evenodd;stroke:#ff0000;stroke-width:3.7500000;stroke-linecap:butt;stroke-linejoin:miter;stroke-miterlimit:4.0000000;stroke-opacity:1.0000000;stroke-dasharray:none;"
     d="M 127.90885,29.479102 L 76.640266,18.872536 L 59.474447,26.164551 L 101.13016,34.782386 C 101.13016,34.782386 116.23609,39.643729 103.41894,45.609921 C 90.601801,51.576115 90.601801,51.576115 90.601801,51.576115 L 90.601801,51.576115"
     id="path7162" />
  <path
     style="fill:none;fill-opacity:0.75000000;fill-rule:evenodd;stroke:#ff0000;stroke-width:3.7500000;stroke-linecap:butt;stroke-linejoin:miter;stroke-miterlimit:4.0000000;stroke-opacity:1.0000000;stroke-dasharray:none;"
     d="M 126.66661,29.258112 L 135.51405,31.246850 C 135.51405,31.246850 140.17060,31.025879 140.86908,30.362966 C 141.56757,29.700054 142.49888,26.606462 141.80040,25.059666 C 141.10192,23.512869 139.23930,21.745103 136.91102,21.303161 C 134.58274,20.861219 134.58274,20.861219 134.58274,20.861219"
     id="path7788" />
</svg>
